<svg width="40" height="40" viewBox="0 0 40 40" fill="none" xmlns="http://www.w3.org/2000/svg">
<path d="M20 0C8.9543 0 0 8.9543 0 20C0 31.0457 8.9543 40 20 40C31.0457 40 40 31.0457 40 20C40 8.9543 31.0457 0 20 0ZM20 6.7749C25.5062 6.7749 29.9707 11.2395 29.9707 16.7456C29.9707 18.4135 29.5137 20.6153 28.5742 21.8603L20 33.2251L11.4258 21.8604C10.3915 20.4896 10.0293 18.5871 10.0293 16.7457C10.0293 11.2395 14.4938 6.7749 20 6.7749ZM20 12.5513C17.6832 12.5513 15.8057 14.4288 15.8057 16.7456C15.8057 19.0624 17.6832 20.9399 20 20.9399C22.3168 20.9399 24.1943 19.0624 24.1943 16.7456C24.1943 14.4288 22.3168 12.5513 20 12.5513Z" fill="black"/>
</svg>
