<svg width="36" height="30" viewBox="0 0 36 30" fill="none" xmlns="http://www.w3.org/2000/svg">
<path d="M3.71429 17L19.4286 17.0012C20.1491 17.0014 20.8431 17.2397 21.3713 17.6685C21.8995 18.0974 22.2231 18.685 22.2771 19.3137L22.2857 19.5012V22.625C22.2843 27.875 16.1614 29.5 11.5714 29.5C7.07286 29.5 1.10143 27.94 0.864286 22.935L0.857143 22.625V19.5C0.857143 18.1825 2.02286 17.1025 3.5 17.0075L3.71429 17ZM22.6 17.0012L32.2857 17C33.7914 17 35.0257 18.02 35.1343 19.3125L35.1429 19.5V22C35.1414 26.6987 30.2429 28.25 26.5714 28.25C25.06 28.25 23.3443 27.9812 21.8443 27.3438C22.9186 26.2262 23.6157 24.8038 23.7043 23.0138L23.7143 22.625V19.5012C23.7143 18.6237 23.3586 17.8262 22.78 17.1887L22.6 17H32.2857L22.6 17.0012ZM11.5714 0.75C12.6033 0.750082 13.6251 0.928007 14.5784 1.27361C15.5318 1.61922 16.398 2.12575 17.1276 2.76427C17.8572 3.40278 18.4359 4.16079 18.8307 4.99501C19.2255 5.82924 19.4287 6.72333 19.4286 7.62625C19.4285 8.52917 19.2251 9.42323 18.8302 10.2574C18.4352 11.0915 17.8563 11.8495 17.1266 12.4879C16.3968 13.1263 15.5305 13.6327 14.5771 13.9781C13.6237 14.3236 12.6019 14.5013 11.57 14.5013C9.48597 14.5011 7.48737 13.7765 6.01386 12.487C4.54037 11.1974 3.71267 9.44853 3.71286 7.625C3.71305 5.80147 4.54111 4.05269 6.01488 2.76338C7.48864 1.47407 9.4874 0.749834 11.5714 0.75ZM27.2857 3.25C28.1299 3.25 28.9659 3.39549 29.7458 3.67818C30.5258 3.96086 31.2345 4.37519 31.8314 4.89752C32.4283 5.41985 32.9019 6.03995 33.2249 6.72241C33.548 7.40486 33.7143 8.13631 33.7143 8.875C33.7143 9.61369 33.548 10.3451 33.2249 11.0276C32.9019 11.7101 32.4283 12.3301 31.8314 12.8525C31.2345 13.3748 30.5258 13.7891 29.7458 14.0718C28.9659 14.3545 28.1299 14.5 27.2857 14.5C25.5807 14.5 23.9456 13.9074 22.74 12.8525C21.5344 11.7976 20.8571 10.3668 20.8571 8.875C20.8571 7.38316 21.5344 5.95242 22.74 4.89752C23.9456 3.84263 25.5807 3.25 27.2857 3.25Z" fill="black"/>
</svg>
