<svg width="50" height="50" viewBox="0 0 50 50" fill="none" xmlns="http://www.w3.org/2000/svg">
<path d="M36.7916 23.3333C36.3125 22.7083 35.7291 22.1667 35.1875 21.625C33.7916 20.375 32.2083 19.4792 30.875 18.1667C27.7708 15.125 27.0833 10.1042 29.0625 6.25C27.0833 6.72917 25.3541 7.8125 23.875 9C18.4791 13.3333 16.3541 20.9792 18.8958 27.5417C18.9791 27.75 19.0625 27.9583 19.0625 28.2292C19.0625 28.6875 18.75 29.1042 18.3333 29.2708C17.8541 29.4792 17.3541 29.3542 16.9583 29.0208C16.8394 28.9225 16.7404 28.8023 16.6666 28.6667C14.3125 25.6875 13.9375 21.4167 15.5208 18C12.0416 20.8333 10.1458 25.625 10.4166 30.1458C10.5416 31.1875 10.6666 32.2292 11.0208 33.2708C11.3125 34.5208 11.875 35.7708 12.5 36.875C14.75 40.4792 18.6458 43.0625 22.8333 43.5833C27.2916 44.1458 32.0625 43.3333 35.4792 40.25C39.2917 36.7917 40.625 31.25 38.6666 26.5L38.3958 25.9583C37.9583 25 36.7916 23.3333 36.7916 23.3333V23.3333ZM30.2083 36.4583C29.625 36.9583 28.6666 37.5 27.9166 37.7083C25.5833 38.5417 23.25 37.375 21.875 36C24.3541 35.4167 25.8333 33.5833 26.2708 31.7292C26.625 30.0625 25.9583 28.6875 25.6875 27.0833C25.4375 25.5417 25.4791 24.2292 26.0416 22.7917C26.4375 23.5833 26.8541 24.375 27.3541 25C28.9583 27.0833 31.4792 28 32.0208 30.8333C32.1042 31.125 32.1458 31.4167 32.1458 31.7292C32.2083 33.4375 31.4583 35.3125 30.2083 36.4583V36.4583Z" fill="black"/>
</svg>
