<svg width="49" height="58" viewBox="0 0 49 58" fill="none" xmlns="http://www.w3.org/2000/svg">
<path d="M41.1789 41.2853L33.0082 32.3827C32.622 31.962 32.1145 31.7376 31.5928 31.757C31.0711 31.7763 30.5761 32.0378 30.2123 32.4863L25.4024 38.4141C24.2446 38.1491 21.917 37.2796 19.5211 34.4156C17.1252 31.542 16.3996 28.7455 16.1845 27.3678L21.1271 21.6013C21.5018 21.1656 21.7203 20.5724 21.7365 19.947C21.7526 19.3217 21.5651 18.7134 21.2135 18.2508L13.7866 8.4618C13.4349 7.99778 12.9462 7.71632 12.4241 7.67719C11.9021 7.63806 11.3879 7.84435 10.9907 8.25224L6.62898 12.7348C6.28147 13.1528 6.07406 13.7091 6.04608 14.2981C6.01593 14.9003 5.44107 29.1646 14.671 40.2302C22.723 49.8771 32.8092 50.5829 35.587 50.5829C35.9931 50.5829 36.2423 50.5684 36.3086 50.5636C36.8001 50.5306 37.264 50.281 37.6111 49.8627L41.3497 44.6334C41.6914 44.1589 41.8649 43.5432 41.8329 42.9176C41.801 42.2921 41.5663 41.7063 41.1789 41.2853Z" fill="black"/>
</svg>
