<svg width="51" height="34" viewBox="0 0 51 34" fill="none" xmlns="http://www.w3.org/2000/svg">
<path d="M50.3179 9.72401V26.9056C50.318 28.6574 49.519 30.3428 48.0846 31.6162C46.6502 32.8895 44.6893 33.6542 42.6042 33.7534L42.1412 33.7639H8.17666C6.08812 33.764 4.0787 33.0938 2.5606 31.8907C1.0425 30.6876 0.130823 29.0429 0.0125798 27.2939L0 26.9056V9.72401L24.2834 20.3934C24.5536 20.5121 24.854 20.5741 25.1589 20.5741C25.4639 20.5741 25.7643 20.5121 26.0345 20.3934L50.3179 9.72401ZM8.17666 4.98125e-08H42.1412C44.168 -0.000204725 46.1226 0.630954 47.626 1.77106C49.1294 2.91116 50.0743 4.47896 50.2776 6.17036L25.1589 17.2069L0.0402544 6.17036C0.235295 4.54613 1.11467 3.03351 2.5203 1.90442C3.92593 0.775322 5.76563 0.103797 7.7087 0.0105515L8.17666 4.98125e-08H42.1412H8.17666Z" fill="black"/>
</svg>
